PathFileType  4	(X/Y/Z) C:\Users\antoi\Documents\MyRepositories\mobilecap\ResultsAnalysis
DataRate	CameraRate	NumFrames	NumMarkers	Units	OrigDataRate	OrigDataStartFrame	OrigNumFrames
100.0	100.0	7	51	mm	100.0	46	181
Frame#	Time	r_knee			r_shank_antsup			r_ankle			r_calc			r_5meta			r_toe			L_knee			L_shank_antsup			L_ankle			L_calc			L_5meta			L_toe			r_sh2			r_sh3			r_sh4			L_sh2			L_sh3			r_thigh1			r_thigh2			r_thigh3			r_thigh4			r_thigh5			L_thigh1			L_thigh2			L_thigh3			L_thigh4			r.ASIS			r.PSIS			L.ASIS			L.PSIS			C7			R_Shoulder			L_Shoulder			R_Sternum			L_Sternum			R_humerus			R_elbow_med			R_elbow_lat			R_forearm			R_wrist_radius			R_wrist_ulna			L_humerus			L_elbow_med			L_elbow_lat			L_forearm			L_wrist_radius			L_wrist_ulna			R_HJC			L_HJC			R_HJC_reg			L_HJC_reg			
		X1	Y1	Z1	X2	Y2	Z2	X3	Y3	Z3	X4	Y4	Z4	X5	Y5	Z5	X6	Y6	Z6	X7	Y7	Z7	X8	Y8	Z8	X9	Y9	Z9	X10	Y10	Z10	X11	Y11	Z11	X12	Y12	Z12	X13	Y13	Z13	X14	Y14	Z14	X15	Y15	Z15	X16	Y16	Z16	X17	Y17	Z17	X18	Y18	Z18	X19	Y19	Z19	X20	Y20	Z20	X21	Y21	Z21	X22	Y22	Z22	X23	Y23	Z23	X24	Y24	Z24	X25	Y25	Z25	X26	Y26	Z26	X27	Y27	Z27	X28	Y28	Z28	X29	Y29	Z29	X30	Y30	Z30	X31	Y31	Z31	X32	Y32	Z32	X33	Y33	Z33	X34	Y34	Z34	X35	Y35	Z35	X36	Y36	Z36	X37	Y37	Z37	X38	Y38	Z38	X39	Y39	Z39	X40	Y40	Z40	X41	Y41	Z41	X42	Y42	Z42	X43	Y43	Z43	X44	Y44	Z44	X45	Y45	Z45	X46	Y46	Z46	X47	Y47	Z47	X48	Y48	Z48	X49	Y49	Z49	X50	Y50	Z50	X51	Y51	Z51	

46	0.45000000	231.70041	474.54040	-45.88434	252.36810	355.63605	-69.29329	144.00780	99.76101	-108.15428	94.34079	65.47069	-159.75993	256.02950	37.56683	-82.55794	293.84047	53.06627	-126.15345	472.93308	495.16204	-324.16314	501.34391	387.17774	-287.62448	365.51509	123.23493	-316.96017	316.88050	88.23729	-264.93366	471.51918	61.18184	-350.39721	518.37553	75.88063	-302.65252	229.39131	248.00971	-92.21277	195.69694	355.71075	-18.57915	156.41632	253.95592	-49.61562	453.45491	420.90617	-352.25269	421.22485	305.30636	-368.04619	362.17882	766.87115	-43.76552	351.45787	653.95990	-47.47900	306.47943	633.37581	-3.67834	262.47636	768.93750	7.51866	255.35419	654.91387	2.75313	396.09132	776.64573	-355.74547	473.52238	665.16097	-344.01194	303.27028	718.08567	-380.88925	383.69571	603.69947	-363.43895	383.49259	931.37177	-73.41434	197.77379	981.71818	-140.42924	377.52476	925.80154	-315.13895	192.35462	973.66189	-256.91556	271.43190	1415.56959	-88.61606	303.30818	1334.50258	49.50133	345.52594	1420.92390	-244.30600	383.33877	1336.18907	-76.99412	389.57795	1347.93262	-119.78548	295.86290	1196.88039	91.20413	207.97721	1022.20223	3.28311	214.32925	1018.32171	77.51360	259.89150	898.05273	95.70214	292.28963	800.57094	96.47421	254.79801	792.22132	98.03443	348.97944	1294.28859	-348.01417	235.21071	1117.70858	-359.89293	263.33068	1141.02619	-422.47772	327.62953	1060.79652	-448.46188	380.05307	941.41527	-447.85699	360.27251	935.14634	-473.03324	288.52178	863.64725	-95.02239	290.29808	853.34589	-284.11167	307.03237	871.15947	-99.47009	299.63130	860.15788	-258.54743	
47	0.46000000	235.30166	474.57455	-45.11048	254.29763	355.00641	-68.67959	144.30282	100.45571	-107.83781	94.58627	66.31048	-159.56176	256.06352	37.48772	-82.39079	294.01079	52.98063	-125.94111	483.63877	495.61150	-323.66354	517.02744	389.56851	-286.23212	396.46031	117.94627	-315.16519	349.13349	81.04084	-263.42616	506.38926	61.00362	-346.15699	551.66631	79.04346	-298.04592	230.98869	247.84417	-91.59278	198.11371	355.75875	-17.94036	157.99371	254.40346	-49.13133	467.96588	420.15053	-351.72542	442.33462	302.84065	-366.89470	368.75398	765.71119	-42.93108	357.37985	653.09098	-46.66604	311.72719	632.68887	-3.45042	269.53763	768.68565	8.45812	261.36750	654.92068	3.29481	404.35160	776.62431	-355.41858	482.00718	665.25286	-343.64059	311.66846	717.66691	-379.84088	392.41517	603.61202	-362.54396	391.45778	930.72933	-72.46899	205.72787	981.09242	-139.55007	385.71264	925.36719	-314.43948	200.35138	972.97817	-256.01482	278.67631	1415.74402	-90.74445	311.88173	1335.90310	47.76330	351.49357	1420.05392	-247.09638	390.93669	1336.89340	-79.34612	396.79044	1348.26167	-122.25332	305.57853	1198.57370	90.41221	218.12598	1022.60658	4.45329	225.53353	1019.10761	78.57685	272.12013	899.40306	96.72623	305.44094	802.10211	97.43752	268.05492	793.50810	99.51032	353.92607	1292.90506	-350.26349	239.91173	1116.63415	-359.83878	267.08153	1139.38666	-422.84744	330.48249	1058.90967	-449.96837	382.14681	939.15886	-450.21632	361.95221	933.04752	-475.07364	296.58244	862.97213	-94.23570	298.42963	852.81983	-283.33269	315.03081	870.62692	-98.56176	307.67970	859.53363	-257.79084	
48	0.47000000	239.05183	474.54326	-44.35043	256.51370	354.36860	-68.07667	144.61882	101.14225	-107.54413	94.88110	67.10853	-159.36363	256.07900	37.41153	-82.22286	294.19047	52.92710	-125.72685	493.64639	495.58009	-323.22121	531.96563	391.80865	-284.93513	427.14706	113.40311	-313.26758	381.33610	74.64082	-261.84308	540.87513	61.62708	-341.64865	584.38084	83.05046	-293.23147	232.66007	247.64694	-91.01906	200.67703	355.75479	-17.33118	159.67086	254.83596	-48.67724	481.83513	419.20315	-351.17700	462.83396	300.55340	-365.72167	375.48052	764.55888	-42.01976	363.60951	652.29739	-45.77597	317.26507	632.02205	-3.09952	276.58542	768.34320	9.39888	267.33602	654.81176	3.91800	412.50635	776.23187	-355.15642	490.13646	664.77683	-343.39460	319.76876	717.15303	-378.78136	400.64992	603.13975	-361.64957	399.51490	930.03639	-71.47577	213.77261	980.38565	-138.67452	394.01858	924.85587	-313.71007	208.47237	972.22257	-255.10593	285.89722	1415.85591	-92.94875	320.48069	1337.26885	45.90186	357.43168	1419.06906	-249.99351	398.58514	1337.53464	-81.80805	404.02574	1348.51052	-124.82824	315.35359	1200.25081	89.51416	228.42822	1022.99141	5.48360	236.83758	1019.91151	79.51006	284.36599	900.78772	97.70332	318.60245	803.64735	98.38885	281.32855	794.82121	100.95455	358.79847	1291.33073	-352.50703	244.68348	1115.31143	-359.67086	270.81502	1137.56204	-423.15606	333.28143	1056.84090	-451.41131	384.13231	936.74715	-452.52397	363.53999	930.79319	-477.05883	304.73863	862.23500	-93.42127	306.68681	852.21705	-282.52472	323.12010	870.00297	-97.63255	315.86388	858.82799	-257.02811	
49	0.48000000	242.99087	474.41824	-43.63620	259.07642	353.72444	-67.50141	145.00664	101.78020	-107.28539	95.21137	67.90163	-159.19945	256.08082	37.33537	-82.06978	294.38263	52.89169	-125.51126	502.96838	495.06733	-322.82451	546.13363	393.88115	-283.74332	457.48007	109.60867	-311.23383	413.40467	69.02086	-260.14709	574.78763	63.14691	-337.01259	616.37537	87.91708	-288.36591	234.42466	247.41221	-90.51639	203.41641	355.69223	-16.77819	161.47371	255.25248	-48.27485	495.02655	418.07793	-350.58930	482.61332	298.46248	-364.53207	382.32985	763.39407	-41.02239	370.08539	651.53358	-44.80184	323.12798	631.36955	-2.59132	283.59337	767.89796	10.34506	273.28916	654.56991	4.59920	420.60833	775.45791	-354.95079	497.96236	663.74848	-343.22964	327.62704	716.54346	-377.72614	408.43904	602.27070	-360.75427	407.64111	929.27932	-70.42309	221.90509	979.59030	-137.81643	402.45585	924.25463	-312.93744	216.73189	971.37054	-254.20356	293.09660	1415.89511	-95.21820	329.10936	1338.58798	43.91668	363.33702	1417.96531	-252.99337	406.28189	1338.09881	-84.37802	411.29834	1348.68082	-127.51233	325.20105	1201.89429	88.50179	238.87364	1023.35886	6.38679	248.24122	1020.72157	80.31157	296.68509	902.18643	98.60844	331.77174	805.19595	99.31287	294.61318	796.15618	102.35179	363.60206	1289.58527	-354.75699	249.53851	1113.71300	-359.40114	274.55344	1135.55671	-423.41199	336.05067	1054.59010	-452.78629	386.02589	934.16923	-454.75218	365.07423	928.38582	-478.97543	312.97647	861.42355	-92.57789	315.08291	851.52082	-281.68585	331.27801	869.29496	-96.67375	324.18551	858.02525	-256.24855	
50	0.49000000	247.13320	474.18779	-42.98875	261.96642	353.06454	-66.96745	145.49571	102.35259	-107.06294	95.54813	68.73768	-159.09753	256.07656	37.26009	-81.94265	294.58590	52.84653	-125.30048	511.64329	494.08715	-322.47636	559.52588	395.77304	-282.65888	487.35248	106.56016	-309.02162	445.21888	64.18110	-258.27583	607.90967	65.64074	-332.39393	647.46981	93.61268	-283.60045	236.29109	247.13957	-90.08619	206.32902	355.57423	-16.29764	163.40212	255.65710	-47.93938	507.53462	416.78614	-349.96347	501.59908	296.56938	-363.32320	389.26761	762.18761	-39.93787	376.71462	650.73816	-43.75162	329.29493	630.71229	-1.91891	290.55913	767.34868	11.29477	279.28543	654.20204	5.28881	428.71624	774.30377	-354.78536	505.54150	662.19648	-343.09437	335.32811	715.83933	-376.69224	415.82703	601.02987	-359.86390	415.79975	928.43481	-69.30507	230.12757	978.69815	-136.98928	411.03738	923.54374	-312.11023	225.13926	970.40169	-253.32545	300.29759	1415.84322	-97.56335	337.77285	1339.84774	41.80790	369.21661	1416.73564	-256.09139	414.01621	1338.57239	-87.05437	418.61619	1348.77147	-130.30802	335.13078	1203.48739	87.36660	249.45444	1023.70505	7.17249	259.74345	1021.52269	80.98195	309.11454	903.57877	99.42048	344.94841	806.73288	100.19441	307.90171	797.50227	103.68909	368.35881	1287.69015	-357.03278	254.48348	1111.84375	-359.05461	278.31835	1133.37770	-423.62616	338.81788	1052.15512	-454.08789	387.84073	931.41028	-456.87110	366.58712	925.82594	-480.80552	321.27211	860.52008	-91.70882	323.62294	850.71276	-280.81865	339.48000	868.50427	-95.67836	332.63035	857.11084	-255.44026	
51	0.50000000	251.46670	473.86069	-42.41059	265.10819	352.37753	-66.47748	146.09218	102.86547	-106.87552	95.86490	69.65397	-159.07128	256.07576	37.19114	-81.84362	294.79515	52.75732	-125.10592	519.72918	492.66663	-322.19403	572.15673	397.47615	-281.68098	516.62339	104.26152	-306.59635	476.60735	60.14916	-256.15123	640.01261	69.14024	-327.92036	677.46005	100.05736	-279.06226	238.25730	246.83402	-89.71057	209.38564	355.41430	-15.89009	165.43347	256.05884	-47.67421	519.38620	415.33321	-349.31804	519.76284	294.85764	-362.08430	396.27772	760.91652	-38.77465	383.39566	649.84870	-42.64383	335.71097	630.03099	-1.09517	297.50355	766.70279	12.24270	285.38148	653.72705	5.93764	436.88736	772.79247	-354.63120	512.93048	660.16078	-342.94396	342.97120	715.05070	-375.69929	422.86942	599.48003	-358.99699	423.95530	927.47595	-68.12228	238.44693	977.70089	-136.20330	419.77363	922.70336	-311.22283	233.69803	969.30174	-252.48941	307.54153	1415.67455	-100.01812	346.47766	1341.03517	39.57716	375.09003	1415.37060	-259.28142	421.77846	1338.94403	-89.83581	425.98018	1348.77505	-133.21615	345.14786	1205.01460	86.10303	260.16511	1024.02094	7.84199	271.33780	1022.30120	81.52108	321.66216	904.94680	100.12345	358.13441	808.24171	101.02212	321.18993	798.84455	104.95631	373.10066	1285.65954	-359.35235	259.52614	1109.71572	-358.66175	282.12770	1131.03413	-423.81210	341.61177	1049.53168	-455.30999	389.59409	928.45805	-458.85456	368.10293	923.11125	-482.53065	329.60210	859.50524	-90.82159	332.30607	849.77696	-279.93017	347.70788	867.62676	-94.64245	341.17658	856.07350	-254.59397	
52	0.51000000	255.95901	473.46378	-41.88298	268.40568	351.65818	-66.01899	146.78545	103.33992	-106.72617	96.15273	70.66397	-159.11422	256.08767	37.13679	-81.76496	295.00454	52.59606	-124.93909	527.29837	490.84676	-322.00608	584.06393	398.98837	-280.80875	545.10591	102.71984	-303.93924	507.34442	56.97134	-253.69080	670.87029	73.60600	-323.68245	706.13882	107.12813	-274.84151	240.31313	246.50510	-89.36164	212.54521	355.23452	-15.53917	167.53586	256.47049	-47.46795	530.63746	413.71689	-348.68206	537.12256	293.29222	-360.79743	403.37281	759.57446	-37.54846	390.05208	648.82345	-41.49810	342.30421	629.31305	-0.14733	304.46349	765.97461	13.18381	291.60262	653.16579	6.52535	445.17366	770.97543	-354.44642	520.18755	657.69785	-342.74965	350.65257	714.20100	-374.77178	429.63982	597.71004	-358.18556	432.09612	926.38366	-66.87975	246.87208	976.59180	-135.46371	428.67259	921.72231	-310.27738	242.40828	968.06290	-251.70966	314.87493	1415.36274	-102.62744	355.23200	1342.13864	37.22842	380.98747	1413.85953	-262.55578	429.56973	1339.20642	-92.72088	433.38874	1348.67782	-136.23426	355.25030	1206.46305	84.71119	271.00158	1024.29393	8.38849	283.01083	1023.04802	81.92662	334.30966	906.27475	100.70619	371.33213	809.70754	101.78988	334.47946	800.16683	106.14458	377.86333	1283.49544	-361.72619	264.67681	1107.32906	-358.25337	285.99448	1128.53659	-423.98571	344.45863	1046.71537	-456.44769	391.31170	925.30641	-460.68657	369.63690	920.23611	-484.13668	337.95897	858.36521	-89.92521	341.13312	848.70431	-279.02912	355.96076	866.65647	-93.56567	349.81211	854.90678	-253.70649	
